<?xml version="1.0" encoding="utf-8"?>
<!-- Generator: Adobe Illustrator 28.1.0, SVG Export Plug-In . SVG Version: 6.00 Build 0)  -->
<svg version="1.1" id="Layer_1" xmlns="http://www.w3.org/2000/svg" xmlns:xlink="http://www.w3.org/1999/xlink" x="0px" y="0px"
	 viewBox="0 0 598.1 167.92" style="enable-background:new 0 0 598.1 167.92;" xml:space="preserve">
<style type="text/css">
	.st0{fill:none;}
	.st1{fill:#947196;}
	.st2{fill:#BDB6CD;}
	.st3{fill:#D89A79;}
	.st4{fill:#6F4559;}
	.st5{fill:#D5BAC7;}
	.st6{fill:#A07EA2;}
	.st7{fill:url(#SVGID_1_);}
	.st8{fill:#97645F;}
	.st9{fill:#F3C096;}
	.st10{fill:#D6923A;}
	.st11{fill:#B87C62;}
	.st12{fill:#EFEDE8;}
	.st13{fill:#C6949B;}
	.st14{fill:#A47369;}
	.st15{fill:#F0CFB6;}
	.st16{fill:url(#SVGID_00000160181903556313975300000009678411304133923479_);}
</style>
<rect x="199.79" y="-11.95" class="st0" width="204.32" height="204.32"/>
<g>
	<path class="st1" d="M404.12,190.57c-0.16,0.26-0.77,1.68-0.8,1.8c-0.76,3.44,0.65,4.62,0.8,6.39c4.82,7.01,16.57,2.11,13.97-6.39
		C416.32,186.62,407.17,185.47,404.12,190.57z M406.91,195.46c-0.63-2.55,1.19,1.98,2.99,0c-2.96-1.01-2.84-3.84,0.1-4.09
		C417.03,190.78,407.99,199.83,406.91,195.46z M409.7,197.26c1.5-0.91,4.21-1.1,4.09-3.29C416.31,195.45,409.77,198.24,409.7,197.26
		z"/>
</g>
<g>
	<path class="st2" d="M350.74,185.98c-3.69,2.33-8.03,4.03-11.67,6.39c-0.33,0.21-2.35,1.56-2.39,1.7c0,9.18,0,9.18,0,18.36
		c7.53,3.94,7.53,3.94,15.06,7.88c1.59,0.17,12.54-7.06,14.87-8.28c0-8.78,0-8.78,0-17.56c-1.25-0.6-2.4-1.42-3.59-2.1
		C359.03,190.11,354.7,188.32,350.74,185.98z M351.54,205.94c-1.61,0.43-1.87-1.97-0.6-2.19
		C352.41,203.48,352.62,205.65,351.54,205.94z"/>
	<path class="st2" d="M315.02,190.37c-0.59-0.06-3.5,1.58-4.29,2c-3.12,1.65-6.04,3.84-9.18,5.49c0,9.98,0,9.98,0,19.95
		c7.33,3.84,7.33,3.84,14.67,7.68c7.03-4.04,7.03-4.04,14.07-8.08c0-9.38,0-9.38,0-18.76c-3.48-1.84-7.78-4.61-11.17-6.29
		C317.76,191.7,316.3,191.21,315.02,190.37z M316.02,210.53c-2.48,0.51-2.58-3.81-0.6-3.99
		C317.85,206.32,317.75,210.17,316.02,210.53z"/>
	<path class="st3" d="M253.07,192.37c0.29,3.49-0.22,8.37,0,12.07c-0.28,0.89-8.86,5.19-10.28,6.09c-5.34-2.84-5.34-2.84-10.68-5.69
		c0.24-3.14-0.33-10.51,0-12.47c0.06-0.37-0.15-0.72,0.3-1c5.59-2.99,5.59-2.99,11.17-5.99c1.51,0.47,9.15,4.34,9.48,5.29
		C253.1,191.23,253.02,191.81,253.07,192.37z"/>
	<path class="st4" d="M386.26,186.18c-0.83,1.13-2.22,3.67-2.99,4.39c-1.15,1.07-2.39,1.21-3.69,1.8c-0.61,0.27-1.94,1.19-2.59,1.4
		c3.88,2.35,0.83,4.94-1.4,0c-1.82,0.37,0.44,2.65,2,5.09c-1.4,2.79-1.4,2.79-2.79,5.59c1.22,1.21,2.7,1.89,4.19,2.69
		c-0.37-0.9-2.92-2.43-2.99-2.69c-0.18-0.62,0.62-1.3,0.7-1.3c0.34,0,4.42,4.18,4.49,4.79c2.23,1.04,2.5,4.75,5.29,4.39
		c1.41-0.18,3.66-3.21,4.79-3.99c0.22-0.15,1.82-0.54,4.09-2.19c-4.44-5.09-1.62-7.41,0.6-0.4c0.04-0.04,0.34-0.02,1-0.5
		c0.19-0.55-1.75-4.38-2.19-5.19c4.41-9.6,1.03-3.09-4.39-7.68C388.41,190.73,387.43,188.35,386.26,186.18z M385.96,191.07
		c1.44,0.51,7.38,8.39,7.38,8.98c0,0.42-0.83,0.91-0.9,0.9c-0.54-0.07-5.04-8.32-6.58-8.58c-1.02-0.17-4.72,7.17-5.29,4.09
		c-0.15-0.8,2.66-2.22-0.5-1.9c1.06-3.73,2.6,2.92,5.99-6.78C387.32,188.91,385.9,190.84,385.96,191.07z M394.34,196.66
		c-0.21,2.39-2.52-1.43-2.1-1.7C392.81,194.61,394.43,195.63,394.34,196.66z M390.55,201.65c0.05,0.75-1.98,3.35-2.89,3.49
		c-3.85-0.33-3.85-2.49-6.48-4.69c1.29-1.66,1.14-0.5,3.29,1.1c0.96-0.8-1.94-2.18-1.7-3.29c0.67-0.34,2.4-2.81,2.69-2.89
		C387.59,194.76,390.52,201.22,390.55,201.65z M378.68,199.95c-1.17-0.53,1.03-2.59,1.2-2.59
		C381.6,197.36,380.41,200.73,378.68,199.95z M383.17,204.84c-0.53,2.21-6.15-3.02-4.69-3.69
		C379.6,200.63,383.26,204.44,383.17,204.84z M390.85,206.14c-1.54-0.32-0.13-2.92,0.8-2.99
		C393.72,202.98,392.51,206.48,390.85,206.14z M385.66,210.33c0.53,0.07,1.66-0.45,1.9-0.9c0.2-0.38-0.14-3.3,1.9-2.69
		c1.64,0.49-2.07,5.12-4.19,4.59c-0.59-0.15-3.38-4.42-1.4-4.79C386.91,205.97,383.44,210.01,385.66,210.33z"/>
	<path class="st1" d="M199.79,190.57c-0.16,0.26-0.77,1.68-0.8,1.8c-0.76,3.44,0.65,4.62,0.8,6.39c4.82,7.01,16.57,2.11,13.97-6.39
		C212,186.62,202.85,185.47,199.79,190.57z M202.59,195.46c-0.63-2.55,1.19,1.98,2.99,0c-2.96-1.01-2.84-3.84,0.1-4.09
		C212.71,190.78,203.67,199.83,202.59,195.46z M205.38,197.26c1.5-0.91,4.21-1.1,4.09-3.29
		C211.99,195.45,205.45,198.24,205.38,197.26z"/>
	<path class="st3" d="M386.06,187.78c1.26,1.13-0.16,3.06-0.1,3.29c1.44,0.51,7.38,8.39,7.38,8.98c0,0.42-0.83,0.91-0.9,0.9
		c-0.54-0.07-5.04-8.32-6.58-8.58c-1.02-0.17-4.72,7.17-5.29,4.09c-0.15-0.8,2.66-2.22-0.5-1.9
		C381.13,190.84,382.68,197.48,386.06,187.78z"/>
	<path class="st5" d="M205.58,195.46c-1.8,1.98-3.62-2.55-2.99,0c1.08,4.37,10.12-4.68,3.09-4.09
		C202.74,191.62,202.62,194.45,205.58,195.46z M207.58,193.87c-0.92,2.01-4.98,0.34-3.09-1.5c1.55,0.43,1.26-0.38,1.4-0.4
		C207.25,191.82,208.24,192.42,207.58,193.87z"/>
	<path class="st6" d="M205.88,191.97c1.37-0.15,2.36,0.45,1.7,1.9c-0.92,2.01-4.98,0.34-3.09-1.5
		C206.04,192.8,205.75,191.99,205.88,191.97z"/>
</g>
<g>
	<linearGradient id="SVGID_1_" gradientUnits="userSpaceOnUse" x1="97.2495" y1="164.9939" x2="98.0495" y2="12.9939">
		<stop  offset="0.0399" style="stop-color:#FFFFFF"/>
		<stop  offset="1" style="stop-color:#FFE07F"/>
	</linearGradient>
	<path class="st7" d="M9.44-11.95c2.61,8.49-9.15,13.4-13.97,6.39c0.27,3.17-0.2,7.44,0,10.77c1.47,0.47,1.71,0.94,1.8,1
		c6.02,3.81,4.46,11.61-1.8,13.77c0,2,0,2,0,3.99c0.48-0.16,1-0.47,1.5-0.4c7.53,4.14,7.53,4.14,15.06,8.28c0,8.38,0,8.38,0,16.76
		c-4.83,3.06-9.75,5.99-14.67,8.88c-0.59,0.08-1.34-0.21-1.9-0.4c0,13.07,0,13.07,0,26.14c0.24-0.06,2.18-0.05,2.59,0
		c1.87,0.22,1.31,0.32,1.8,0.6c0.18,0.1,2.67,2.07,2.79,2.19c0.35,0.36,0.69,0.8,1,1.2c0.49,0.63,1.31,1.87,1.6,2.59
		c0.35,0.87,0.31,1.12,0.4,1.6c0.14,0.74,0.19,1.45,0.2,2.19c0.08,6.23-0.45,9.46-6.39,11.77c-0.43,0.17-1.35,0.78-2.59,1
		c-0.42,0.07-0.98,0.17-1.4,0.2c0,1.8,0,1.8,0,3.59c1.19-0.12,13.23,6.54,15.16,7.88c0,9.78,0,9.78,0,19.55
		c-7.58,4.74-7.58,4.74-15.16,9.48c0,3.39,0,3.39,0,6.78c12.83-0.46,14.21,18.09,0,17.56c0,2.59,0,2.59,0,5.19
		c2.87,3.07,2.51,7.39,0,10.58c0,1.7,0,1.7,0,3.39c3.05-5.11,12.2-3.96,13.97,1.8c9.18,0,9.18,0,18.36,0c0.06-0.37-0.15-0.72,0.3-1
		c5.59-2.99,5.59-2.99,11.17-5.99c1.51,0.47,9.15,4.34,9.48,5.29c0.03,0.56-0.05,1.14,0,1.7c3.79,0,3.79,0,7.58,0
		c-0.35-6.19-0.01-7.04,5.49-9.98c6.77-3.62,8.57-1.97,15.66,2.89c0.15,2.33,0.36,4.76,0.2,7.08c8.18,0,8.18,0,16.36,0
		c-0.99-0.44-8.82-4.6-8.98-5.09c0-6.39,0-6.39,0-12.77c5.34-3.14,5.34-3.14,10.68-6.29c5.74,3.14,5.74,3.14,11.47,6.29
		c0,6.39,0,6.39,0,12.77c-2.36,1.14-6.86,4.35-8.38,5.09c3.79,0,3.79,0,7.58,0c0.79-0.42,3.7-2.05,4.29-2
		c1.28,0.83,2.74,1.33,4.09,2c9.98,0,9.98,0,19.95,0c3.65-2.35,7.98-4.06,11.67-6.39c3.96,2.34,8.29,4.12,12.27,6.39
		c8.28,0,8.28,0,16.56,0c1.3-0.58,2.54-0.73,3.69-1.8c0.77-0.72,2.16-3.26,2.99-4.39c1.18,2.17,2.15,4.54,4.09,6.19
		c6.48,0,6.48,0,12.97,0c0.03-0.12,0.64-1.53,0.8-1.8c0-1.7,0-1.7,0-3.39c-4.77,6.06-14.88,5.93-16.36-2.49
		c-1.96-11.13,11.08-13.73,16.36-8.08c0-2.59,0-2.59,0-5.19c-11.45-0.43-11.25-17.16,0-17.56c0-3.39,0-3.39,0-6.78
		c-7.98-4.64-7.98-4.64-15.96-9.28c0-9.38,0-9.38,0-18.76c7.98-4.44,7.98-4.44,15.96-8.88c0-1.8,0-1.8,0-3.59
		c-1.75,0.12-3.12,0.12-2.39-0.6c-0.78,0.66-2.39-0.14-2.79-1c0.36,0.93-2.52-1.33-3.39-2.29c-5.05-5.58-1.21-7.42-1.4-8.38
		c-0.06-0.31-1.5-0.67-1.6-1c-0.13-0.42,0.48-1.3,0.6-1.7c0.15-0.53,0.38-1.31,0.6-1.8c0.95-2.11,2.31-4.06,4.39-5.19
		c1.66-0.9,2.19-0.74,2.39-0.8c0.98-0.26,2.19-0.88,3.19-0.4c0.14-0.1,0.01-0.1,0.4-0.2c0-13.07,0-13.07,0-26.14
		c-1.02-0.34-13.64-7.15-13.97-7.88c-0.08-5.73,0.03-11.43,0-17.16c2.72-1.4,12.42-7.57,13.97-8.08c0-2,0-2,0-3.99
		c-2.35,0.81-4.56,0.78-6.88-0.2c-8.59-3.64-5.66-17.87,6.48-14.57c0.11,0.03,0.3-0.03,0.4,0c-0.2-3.33,0.27-7.61,0-10.77
		c-0.15-1.76-1.56-2.94-0.8-6.39c-6.48,0-6.48,0-12.97,0c5.42,4.6,8.8-1.92,4.39,7.68c0.45,0.81,2.39,4.64,2.19,5.19
		c-0.65,0.48-0.96,0.46-1,0.5c-0.56,0.5-0.57,0.38-0.6,0.4c-2.27,1.65-3.88,2.05-4.09,2.19c-1.12,0.78-3.38,3.81-4.79,3.99
		c-2.79,0.36-3.05-3.35-5.29-4.39c-0.18-0.08-0.96-0.13-2.19-0.8c-1.49-0.8-2.97-1.49-4.19-2.69c1.4-2.79,1.4-2.79,2.79-5.59
		c-1.55-2.44-3.82-4.72-2-5.09c0.51-0.1,0.84,0.18,1.4,0c0.66-0.21,1.98-1.12,2.59-1.4c-8.28,0-8.28,0-16.56,0
		c1.2,0.68,2.35,1.49,3.59,2.1c0,8.78,0,8.78,0,17.56c-2.32,1.22-13.28,8.45-14.87,8.28c-7.53-3.94-7.53-3.94-15.06-7.88
		c0-9.18,0-9.18,0-18.36c0.05-0.14,2.06-1.48,2.39-1.7c-9.98,0-9.98,0-19.95,0c3.39,1.67,7.69,4.45,11.17,6.29
		c0,9.38,0,9.38,0,18.76c-7.03,4.04-7.03,4.04-14.07,8.08c-7.33-3.84-7.33-3.84-14.67-7.68c0-9.98,0-9.98,0-19.95
		c3.14-1.65,6.06-3.84,9.18-5.49c-3.79,0-3.79,0-7.58,0c-0.55,0.27-2.2,1.05-2.69,1c-0.6-0.56-1.39-0.69-2.1-1
		c-8.18,0-8.18,0-16.36,0c-0.06,0.89-0.13,2.77-0.4,3.49c-0.73,1.94-7.63,6.22-10.68,5.89c-1.47-0.16-9.2-4.39-10.08-6.29
		c-0.33-1.02-0.14-2.06-0.2-3.09c-3.79,0-3.79,0-7.58,0c0.29,3.49-0.22,8.37,0,12.07c-0.28,0.89-8.86,5.19-10.28,6.09
		c-5.34-2.84-5.34-2.84-10.68-5.69c0.24-3.14-0.33-10.51,0-12.47C18.62-11.95,18.62-11.95,9.44-11.95z M82.77,7.4
		c-8.6-1.71-8.98-14.24,0.4-14.96C96.03-8.55,94.3,9.69,82.77,7.4z M25.8-0.08c0,6.09,0,6.09,0,12.17c-9.39,7.61-10.84,7.21-20.75,1
		c0-6.68,0-6.68,0-13.37c1.78-1.23,7.96-5.08,9.48-5.29C17.3-5.94,25.57-0.89,25.8-0.08z M69.7,3.11c0,5.59,0,5.59,0,11.17
		c-5.54,3.24-5.54,3.24-11.07,6.48c-5.24-3.04-5.24-3.04-10.48-6.09c0-5.59,0-5.59,0-11.17c5.34-3.14,5.34-3.14,10.68-6.29
		C64.26,0.17,64.26,0.17,69.7,3.11z M93.74,13.39c2.89,2.34,2.86,11.57-0.6,14.17c-4.28,3.21-14.96,2.73-16.66-3.09
		c-0.63-2.14-0.53-7.13,0.4-9.18c1.01-2.22,5.4-4.06,7.68-4.29C87.08,10.74,91.75,11.78,93.74,13.39z M181.14,28.95
		c-8.11,4.35-18.25-4.26-12.47-12.27c1.15-1.6,4.15-3.43,6.09-3.69C185.34,11.58,189.24,24.6,181.14,28.95z M28.3,14.79
		c1.32-0.11,2.27,1.37,2.1,2.59c0.89-0.11,0.77-0.82,1-0.4c0.35,0,0.35,0,0.7,0c2.64,2.24,2.64,2.24,5.29,4.49
		c-0.55,0.26-1.06,0.6-1.6,0.9c-1.39,0.79-3,1.39-4.49,2c-0.25,0.25-0.25,0.25-0.5,0.5c-0.12,0.21,0.26,0.36,0.2,0.5
		c3.45-0.18,13.24-5.2,11.57,2.29c-0.86,3.86-7.37,0.04-11.97-0.9c0,0.02-0.17-0.01-0.4,0.3c2.47,1.84,5.35,3,7.98,4.59
		c-0.81,0.78-4.34,4.64-4.99,3.99c-0.96-2.3-3.19-5.66-3.99-7.68c-0.76-0.51-0.33,0.9-0.2,1.6c0.46,2.4,1.87,5.27,2.59,7.68
		c-1.39,1.88-3.38,2.84-5.59,1.7c-1.43-0.74-1.3-1.82-2.79-2.39c0.15,0.95-1.63-0.93-2.79-2c-0.28-0.25-2.23-1.58-2.19-1.9
		c2.36-1.63,4.52-3.54,6.78-5.29c-1.27-0.07-7.65,3.26-8.08,3.19c-0.67-0.1-3.35-3.53-1.3-6.29c2.23-3,5.34,1.68,9.58,1.9
		c-0.2-1.11-0.87-0.92-1.8-1.6c-0.67-0.48-1.33-0.88-2-1.4c-0.09-0.07-1.34-0.5-1.8-1.3c2.41-2.05,4.79-4.79,7.58-6.29
		C27.32,15.52,27.69,14.84,28.3,14.79z M165.28,27.66c0.56,7.45-4.54,8.68-10.28,11.27c-1.89,0.13-11.01-4.22-11.47-6.09
		c0.1-4.99,0.1-4.99,0.2-9.98c0.45-1.03,8.62-5.5,9.88-5.69C157.06,16.68,164.71,20.16,165.28,27.66z M136.54,23.47
		c0,6.09,0,6.09,0,12.17c-5.24,2.94-5.24,2.94-10.48,5.89c-5.34-2.74-5.34-2.74-10.68-5.49c0-5.89,0-5.89,0-11.77
		c5.24-3.14,5.24-3.14,10.48-6.29C131.2,20.72,131.2,20.72,136.54,23.47z M58.33,23.96c1.8,0.68,12.8,6.38,13.17,7.08
		c0.8,3.92,0.23,7.99,0.4,11.97c-5.54,4.24-5.54,4.24-11.07,8.48c-4.97-2.15-9.77-4.67-14.27-7.68c0-5.99,0-5.99,0-11.97
		c0.21-0.79,4.25-3.24,5.19-3.89C52.84,27.18,57.36,23.89,58.33,23.96z M111.6,28.65c4.04,6.92-4.66,15.21-11.67,9.68
		c-5.63-4.44-2.69-12.78,3.79-13.37C106.41,24.72,110.19,26.23,111.6,28.65z M178.64,39.83c0,6.29,0,6.29,0,12.57
		c-5.04,2.94-5.04,2.94-10.08,5.89c-1.42,0.17-9.09-4.3-11.07-5.09c0-6.39,0-6.39,0-12.77c5.34-2.94,5.34-2.94,10.68-5.89
		C173.41,37.18,173.41,37.18,178.64,39.83z M88.36,35.94c0.96,0.54,3.22,3.46,3.49,4.49c1.45,5.41-5.3,12.55-12.27,8.28
		c-5.44-3.33-4.56-12.68,2.19-13.77C83.44,34.67,86.84,35.09,88.36,35.94z M151.71,45.01c-0.11,4.41,0.36,8.77,0,13.17
		c-12.72,7.98-11.18,9.6-24.34,0.8c0.01-4.5-0.12-8.99,0.3-13.47c1.72-1.06,10.96-6.68,11.77-6.78
		C141.13,38.5,151.46,44.16,151.71,45.01z M42.56,47.21c1.88,11.29,0.54,11.42-9.08,15.86c-7.95-2.97-12.3-3.89-10.68-13.67
		c0.8-4.84,7.06-7.53,8.68-7.68C34.47,41.43,40.48,44.93,42.56,47.21z M115.39,48.41c-0.87,15.65,3.77,10.62-11.27,18.86
		c-5.54-2.94-5.54-2.94-11.07-5.89c0-6.09,0-6.09,0-12.17c0.32-1.26,9.78-6.53,11.27-6.68C106.74,42.28,115.01,47.26,115.39,48.41z
		 M87.46,59.78c-0.1,6.48-0.1,6.48-0.2,12.97c-0.55,1.26-9.34,5.94-11.27,6.68c-1.33,0.09-11.53-5.11-11.87-6.29
		c0.63-11.85-2.83-13.12,6.29-17.86c0.63-0.33,3.96-1.96,4.19-2C77.45,52.89,84.96,57.8,87.46,59.78z M194.01,61.38
		c0.41,4.1,0.18,8.25,0,12.37c-3.18,2.14-6.52,4.04-10.08,5.49c-1.35,0.08-9.39-4-10.28-5.09c-1.5-1.85-0.69-10.22-0.4-12.97
		c0.4-0.9,8.69-5.39,9.48-5.49C185.1,55.4,193.74,60.74,194.01,61.38z M16.42,67.76C15.84,79.79-4.32,79.99-2.73,65.57
		c0.51-4.6,4.97-8.33,9.48-8.48C12.83,56.89,16.7,61.98,16.42,67.76z M51.04,63.87c-1.99-0.48-1.91-3.92,0-4.39
		C55.07,58.49,55.11,64.85,51.04,63.87z M165.87,65.57c0,6.48,0,6.48,0,12.97c-5.24,3.04-5.24,3.04-10.48,6.09
		c-1.25,0.15-9.97-4.59-11.67-5.69c0-6.39,0-6.39,0-12.77c5.44-3.14,5.44-3.14,10.87-6.29C155.88,59.72,164.07,64.5,165.87,65.57z
		 M44.66,65.07c-2.15-0.52-1.84-4.14,0.4-4.39C48.49,60.29,48.54,66,44.66,65.07z M56.83,68.46c-3.4,0.62-3.74-4.01-1.4-4.59
		C58.95,63.01,59.46,67.98,56.83,68.46z M138.34,71.35c0,6.39,0,6.39,0,12.77c-1.48,1.11-11.27,6.72-12.07,6.68
		c-5.64-2.94-5.64-2.94-11.27-5.89c0-6.29,0-6.29,0-12.57c6.04-3.44,6.04-3.44,12.07-6.88C132.7,68.41,132.7,68.41,138.34,71.35z
		 M52.44,70.26c-3.48,1.54-4.3-3.6-1.8-4.19C53.5,65.39,54.68,69.26,52.44,70.26z M42.26,71.45c-3.83,0.84-3.93-4.38-1.2-4.79
		C44.18,66.2,44.86,70.89,42.26,71.45z M33.98,84.92c-5.55,8.33-20.12,3.14-17.76-6.98c0.73-3.14,4.94-6.51,8.08-6.88
		C32.42,70.09,38.4,78.29,33.98,84.92z M57.83,76.64c-3.26,0.53-3.78-4.39-1.2-4.99C60.25,70.81,60.72,76.17,57.83,76.64z
		 M106.81,77.34c0,6.09,0,6.09,0,12.17c-9.05,6.96-11.28,6.6-20.35-0.4c0-5.79,0-5.79,0-11.57c2.96-2.33,6.39-3.9,9.68-5.69
		C97.65,71.66,105.18,75.99,106.81,77.34z M50.04,77.44c-3.02,0.25-3.37-4.33-0.8-4.79C52.78,72.02,53.05,77.19,50.04,77.44z
		 M42.46,78.84c-3.46,0.81-4.06-4.1-1.4-4.59C44.37,73.64,44.83,78.28,42.46,78.84z M54.63,82.23c-3.43,0.68-3.62-3.99-1-4.39
		C56.72,77.37,57.1,81.74,54.63,82.23z M47.05,82.43c-2.99,0.45-3.24-3.87-1-4.39C49.39,77.27,49.68,82.03,47.05,82.43z
		 M179.04,96.89c-3.49,3.98-9.32,4.17-13.27,0.7c-5.99-5.26-1.4-14.56,5.99-14.96C179.3,82.22,184.2,91.01,179.04,96.89z
		 M82.87,90.31c0,6.19,0,6.19,0,12.37c-5.14,2.94-5.14,2.94-10.28,5.89c-0.69,0.08-11.87-5.83-12.07-6.48c0-6.09,0-6.09,0-12.17
		c5.04-2.94,5.04-2.94,10.08-5.89C71.57,83.91,82.65,89.65,82.87,90.31z M54.73,91.31c-0.1,7.08-0.1,7.08-0.2,14.17
		c-0.46,1-9.12,5.77-10.87,6.29c-1.44,0.08-11.14-4.85-11.47-6.09c0-7.18,0-7.18,0-14.37c3.3-2.81,7.24-4.72,11.07-6.68
		C45.17,85.19,54.34,89.94,54.73,91.31z M141.03,94c0.97-0.23,1.91,0.26,2,0.2c0.28-0.2-0.03-1.68,0.1-1.9
		c0.14-0.22,0.65-0.03,0.7-0.1c0.81-1.21,3.39-4.72,4.69-1.8c0.17,0.38,0.18,0.35,0.2,0.8c1.13-0.47,4.23-0.52,3.39,1.4
		c1.3-0.04,2.02,0.21,2.59,1.4c0.33,0.68,0.55,0.86,0.4,2c3.24,1.86,2.92,2.52,0.8,5.19c1.46,1.02,2.17,2.78,1.8,4.49
		c-0.3,1.38-1.9,1.79-2,1.9c-0.68,0.79-1,1.7-1.9,2.39c-1.59,1.24-2.56,1.13-2.69,1.2c-0.22,0.1-2.21,2.35-4.19,1
		c-2.2,0.71-3.1-1.87-4.39-2.99c-3.37,1.91-6.96-1.4-4.79-4.59c-2.88-1-1.29-4.12,1.2-4.79c-0.03-0.11-0.18-0.38-0.2-0.4
		C136.83,97.44,138.74,94.54,141.03,94z M130.96,98.69c-0.24,3,0.32,10.4,0,12.17c-0.49,2.72-9.52,6.7-12.07,8.28
		c-1.02,0.08-12.13-5.51-12.47-6.68c0-7.08,0-7.08,0-14.17c0.2-0.61,10.16-6.35,11.07-6.48C120.19,91.4,130.65,97.45,130.96,98.69z
		 M19.72,107.37C9.53,108.59,7.26,94.04,16.92,92.8C27.42,91.46,29.27,106.22,19.72,107.37z M101.62,113.65
		c-6.45,8.09-18.79,2.57-17.56-6.98c0.48-3.72,7.36-7.06,8.88-7.28C98.42,98.58,107.71,106.02,101.62,113.65z M178.15,118.14
		c-3.35,2.14-6.01,1.6-9.38-0.2c-7.92-4.23-3.8-14.29,3.59-15.16C182,101.65,186.4,112.87,178.15,118.14z M38.77,116.05
		c0,6.48,0,6.48,0,12.97c-0.26,0.86-11.48,7.4-12.87,7.28c-5.44-2.94-5.44-2.94-10.87-5.89c0-7.08,0-7.08,0-14.17
		c5.84-3.64,5.84-3.64,11.67-7.28C28.17,108.79,38.48,115.04,38.77,116.05z M63.61,113.35c1.66,1.57,1.81,7.22,1.5,9.48
		c-0.53,3.81-7.55,6.26-8.48,6.29c-1.54,0.04-7.12-2.84-8.08-4.09c-1.37-1.78-1.38-8.88-0.4-10.77c0.66-1.28,5.86-3.96,7.28-4.09
		C57.5,109.97,62.15,111.97,63.61,113.35z M85.56,120.54c0.79-0.1,2.12,0.67,2.89,1c0.93,0.39,7.41,3.98,7.58,4.49
		c0.1,6.19,0.1,6.19,0.2,12.37c-0.18,0.71-2.58,2.21-3.29,2.69c-8.28,5.68-10.42,5.08-18.46-1.1c0-6.48,0-6.48,0-12.97
		c0.21-0.68,3.82-2.23,4.59-2.69C81.22,123.02,83.3,121.65,85.56,120.54z M162.08,121.84c3.28,6.05,4.56,5.12,10.97,6.19
		c-1.6,2.79-1.6,2.79-3.19,5.59c1.7,2.79,1.7,2.79,3.39,5.59c-3.74,0.65-3.74,0.65-7.48,1.3c-5.62,8.92-6.47,0.98-8.98-0.4
		c-0.92-0.51-2.51-0.39-3.49-0.6c-0.37-0.08-2.54-0.54-2.59-0.7c0.34-0.54,1.8-3.77,1.8-3.99c-0.01-0.43-5.12-8.42-2.29-6.09
		c0.33-0.92,2.96-0.29,1.1-1.1c1.47-0.48,3.14-1.87,5.29-0.9c0.49-0.13,2.68-4.63,3.59-5.19c0.42-0.11,0.71,0.18,1.1,0.2
		C161.35,121.74,160.94,120.99,162.08,121.84z M109.71,136.5c-11.04,1.52-12.21-13.96-2-14.77
		C118.26,120.9,118.99,135.22,109.71,136.5z M143.93,131.61c0,6.48,0,6.48,0,12.97c-5.24,3.14-5.24,3.14-10.48,6.29
		c-1.33,0.24-10.47-4.83-12.27-6.09c0-6.58,0-6.58,0-13.17c5.44-3.14,5.44-3.14,10.87-6.29
		C132.96,125.24,143.69,130.86,143.93,131.61z M57.03,150.67c-10.05-1.06-8.88-14.98-0.4-16.16
		C69.7,132.68,70.8,152.12,57.03,150.67z M47.55,142.39c0,5.49,0,5.49,0,10.97c-5.64,3.34-5.64,3.34-11.27,6.68
		c-0.92,0.07-10.05-5.16-11.47-6.29c0-5.89,0-5.89,0-11.77c5.34-3.24,5.34-3.24,10.68-6.48C37.07,136.51,47.25,141.41,47.55,142.39z
		 M184.53,154.06c-11.09,6.76-17.8-13.13-4.79-14.17C189.29,139.13,191.41,149.87,184.53,154.06z M115.49,145.48
		c2.72,2.42,1.62,8.44,1.3,11.87c-9.71,6.34-10.64,7.73-20.75,0.2c-0.63-3.46-0.38-6.9,0-10.38c1.55-1.94,8.12-5.64,10.28-5.69
		C108,141.45,114.18,144.32,115.49,145.48z M19.42,156.75c-4.92,5.63-17.01,2.11-13.37-6.88c0.79-1.94,1.45-2.71,3.39-3.59
		C17.49,142.63,23.78,151.76,19.42,156.75z M73.99,147.48c6.14,3.64,6.14,3.64,12.27,7.28c0.1,6.29,0.1,6.29,0.2,12.57
		c-1.96,1.01-9.08,7.24-10.68,7.08c-6.73-3.64-6.73-3.64-13.47-7.28c0-5.89,0-5.89,0-11.77c0.12-0.22,0.58-0.47,0.6-0.5
		c0.35-0.47,8.78-6.41,9.58-6.78C73.07,147.81,73.38,147.37,73.99,147.48z M163.08,161.94c0,6.78,0,6.78,0,13.57
		c-5.24,3.04-5.24,3.04-10.48,6.09c-6.24-3.04-6.24-3.04-12.47-6.09c0-6.78,0-6.78,0-13.57c1.68-0.81,10.23-5.81,10.87-5.89
		C152.78,155.84,161.01,160.64,163.08,161.94z M182.93,176.01c-9.99,5.69-20.04-6.38-13.47-13.87c1.22-1.39,5.08-3.46,6.88-3.69
		C186.12,157.2,193.03,170.26,182.93,176.01z M59.92,167.53c0.17,12.05,2.09,11.61-5.49,15.86c-7.53,4.23-7.7,3.45-17.46-2.89
		c0-6.29,0-6.29,0-12.57c0.3-1,9.61-6.06,11.27-6.68C49.96,161.08,59.28,166.17,59.92,167.53z M31.19,168.73c0,7.18,0,7.18,0,14.37
		c-5.24,3.04-5.24,3.04-10.48,6.09c-1.57-0.74-11.81-5.69-12.07-6.48c0.1-6.88,0.1-6.88,0.2-13.77c5.24-3.04,5.24-3.04,10.48-6.09
		C20.97,162.61,29.07,167.61,31.19,168.73z M113.7,173.02c1.06-0.43,2.68,1.81,8.98-5.59c0.96,0.82,2.48,3.4,2.89,3.79
		c2.12,2.04,5,2.46,7.78,2.89c-2.05,5.7-2.83,4.86-0.4,10.97c-0.15,0.32-5.26,1.12-6.09,1.7c-0.51,0.35-2.64,4.41-3.89,4.99
		c-0.03,0.01,0.08,0.29-0.6,0.2c-5.81-7.05-5.15-4.72-7.68-5.59c-3.04-1.04-0.6-4.47-0.7-5.89c-0.06-0.86-3.35-6.99-1.3-6.68
		c0.1,0.01,0.15,0.45,0.3,0.6c0.25-0.61,0.44-0.63,0.6-0.8C113.65,173.55,113.49,173.1,113.7,173.02z"/>
	<path class="st6" d="M214.96,137.6c0-9.78,0-9.78,0-19.55c-1.94-1.34-13.98-8-15.16-7.88c-7.98,4.44-7.98,4.44-15.96,8.88
		c0,9.38,0,9.38,0,18.76c7.98,4.64,7.98,4.64,15.96,9.28C207.38,142.34,207.38,142.34,214.96,137.6z M203.09,124.33
		c2.65,1.79,2.53,5.01,1.9,7.88c-5.87,7.22-12.4,0.44-11.17-4.59c0.27-1.09,3.27-4.05,4.49-4.29
		C199.8,123.03,201.81,123.47,203.09,124.33z"/>
	<path class="st3" d="M183.43,184.69c1.48,8.42,11.59,8.55,16.36,2.49c2.51-3.19,2.87-7.5,0-10.58
		C194.52,170.96,181.47,173.56,183.43,184.69z M193.51,186.58c-6.53,1.74-7.78-7.42-2.59-8.38
		C197.06,177.06,198.41,185.28,193.51,186.58z"/>
	<path class="st8" d="M203.09,94c0.38,5.87-7.59,5.39-6.58-0.2c-2.59-0.06-5.43-0.88-7.68-2.19c-0.12,0.4-0.73,1.27-0.6,1.7
		c0.1,0.33,1.53,0.69,1.6,1c0.19,0.96-3.65,2.8,1.4,8.38c0.88,0.97,3.75,3.22,3.39,2.29c3.04-8.91,2.05-4.14,6.68-5.59
		c1.25,2.99,1.25,2.99,2.49,5.99c5.94-2.31,6.47-5.54,6.39-11.77C208.09,94.14,204.53,95.43,203.09,94z M192.81,95.1
		c0,0.13-2.38,0.97-2.49,0.9c-0.07-0.04,0.34-1.36,0.4-1.4C190.95,94.47,192.81,94.99,192.81,95.1z M195.8,97.09
		c-0.02,0.35-5.24,3.58-5.99,2.99c-0.39-0.31-1.06-1.7-0.3-1.9c0.99,0.14,5.09-2.84,5.39-2.79C195.02,95.41,195.81,97,195.8,97.09z
		 M208.87,97.99c-1.62-1.99,0.04-2.44,0.2-2.39C209.19,95.63,208.88,97.72,208.87,97.99z M206.68,102.58
		c-1.95-1.95-1.95-1.95-3.89-3.89c0.87-0.85,1.55-2.64,1.7-2.69C206.06,95.4,209.63,98.65,206.68,102.58z M195.4,99.69
		c-0.47,0.32-1.9,3.26-2.1,3.29c-0.09,0.01-1.3-1.21-1.3-1.3c0-0.36,2.72-1.83,3.09-2.29C195.26,99.54,195.26,99.54,195.4,99.69z
		 M205.48,103.98c-0.03,0.06-1.13,0.61-1.2,0.6c-0.2-0.04-1.78-3.6-1.4-3.79C203.05,101.43,205.74,103.51,205.48,103.98z"/>
	<path class="st3" d="M199.4,5.21c0.15,0.3,0.15,0.3,0.3,0.6c-2.25-0.27-3.8-0.32-5.99,0.4c-6.38,2.88-4.53,11.74,2.19,12.57
		c2.29,0.28,4.82-0.68,6.29-2.49c3.86-4.79-1.57-7.61-0.6-10.08c-0.09-0.05-0.33-0.52-1.8-1C199.69,5.18,199.51,5.24,199.4,5.21z
		 M198.5,15.98c-5.54,2.48-8.02-6.23-2.59-6.98C200.51,8.36,202.39,14.24,198.5,15.98z"/>
	<path class="st3" d="M199.4,5.21c0.15,0.3,0.15,0.3,0.3,0.6c-2.25-0.27-3.8-0.32-5.99,0.4c-6.38,2.88-4.53,11.74,2.19,12.57
		c2.29,0.28,4.82-0.68,6.29-2.49c3.86-4.79-1.57-7.61-0.6-10.08c6.02,3.81,4.46,11.61-1.8,13.77c-2.35,0.81-4.56,0.78-6.88-0.2
		C184.32,16.13,187.25,1.9,199.4,5.21z"/>
	<path class="st9" d="M203.79,105.37c-0.43,0.17-1.35,0.78-2.59,1c-0.85-3.19-0.85-3.19-1.7-6.39c-0.71-0.21-1.07,5.11-2.1,5.99
		c-0.78,0.66-2.39-0.14-2.79-1c3.04-8.91,2.05-4.14,6.68-5.59C202.54,102.38,202.54,102.38,203.79,105.37z"/>
	<path class="st8" d="M201.19,106.37c-0.42,0.07-0.98,0.17-1.4,0.2c-1.75,0.12-3.12,0.12-2.39-0.6c1.03-0.88,1.38-6.2,2.1-5.99
		C200.34,103.18,200.34,103.18,201.19,106.37z"/>
	<path class="st10" d="M193.81,127.62c-1.22,5.03,5.3,11.8,11.17,4.59c0.63-2.87,0.76-6.09-1.9-7.88c-1.28-0.86-3.28-1.3-4.79-1
		C197.08,123.57,194.07,126.53,193.81,127.62z M198.9,131.31c-1.15-0.36-1.14-2.86,0-3.19C201.58,127.33,201.6,132.15,198.9,131.31z
		"/>
	<path class="st3" d="M198.5,15.98c3.89-1.75,2.01-7.62-2.59-6.98C190.48,9.75,192.96,18.47,198.5,15.98z M197.1,14.59
		c-2.68,0.38-2.99-3.34-1-3.79C199.02,10.14,199.34,14.27,197.1,14.59z"/>
	<path class="st11" d="M200.29,96.79c2.49-0.56,1.64-5.32-1.2-4.99C196.51,92.11,196.8,97.58,200.29,96.79z M200.09,96
		c-2.42,0.58-2.64-2.78-1.2-3.19C201.23,92.13,201.98,95.54,200.09,96z"/>
	<path class="st12" d="M198.9,128.12c2.68-0.79,2.71,4.03,0,3.19C197.74,130.96,197.76,128.46,198.9,128.12z"/>
	<path class="st9" d="M198.9,92.8c2.33-0.67,3.09,2.74,1.2,3.19C197.67,96.58,197.46,93.22,198.9,92.8z"/>
</g>
<g>
	<path class="st10" d="M303.15-11.95c-0.55,0.27-2.2,1.05-2.69,1c-0.6-0.56-1.39-0.69-2.1-1c-0.99-0.44-8.82-4.6-8.98-5.09
		c0-6.39,0-6.39,0-12.77c5.34-3.14,5.34-3.14,10.68-6.29c5.74,3.14,5.74,3.14,11.47,6.29c0,6.39,0,6.39,0,12.77
		C309.17-15.9,304.67-12.69,303.15-11.95z"/>
	<path class="st13" d="M281.8-19.04c-7.1-4.86-8.89-6.51-15.66-2.89c-5.5,2.94-5.84,3.78-5.49,9.98c0.06,1.04-0.13,2.07,0.2,3.09
		c0.87,1.9,8.61,6.12,10.08,6.29c3.05,0.33,9.94-3.95,10.68-5.89c0.27-0.72,0.34-2.6,0.4-3.49
		C282.17-14.28,281.96-16.71,281.8-19.04z M271.93-9.96c-6.06,0.69-6.49-7.28-1.2-7.58C275.9-17.83,277.03-10.54,271.93-9.96z"/>
	<path class="st3" d="M271.93-9.96c5.1-0.58,3.98-7.87-1.2-7.58C265.43-17.24,265.86-9.26,271.93-9.96z M271.33-11.15
		c-0.77,0.12-1.68-0.79-2.19,0c-1.86-2.02-1.35-4.98,1-5.39C273.95-17.21,275.43-11.76,271.33-11.15z"/>
	<path class="st14" d="M269.13-11.15c0.52-0.79,1.42,0.12,2.19,0c4.1-0.61,2.63-6.05-1.2-5.39
		C267.78-16.13,267.27-13.18,269.13-11.15z M271.33-11.95c-2.6,0.59-3.04-3.89-0.8-3.99C272.6-16.03,273.06-12.34,271.33-11.95z"/>
	<path class="st15" d="M270.53-15.94c2.07-0.09,2.53,3.6,0.8,3.99C268.72-11.36,268.29-15.84,270.53-15.94z"/>
</g>
<g>
	
		<linearGradient id="SVGID_00000179614822955712924860000001503266457579730834_" gradientUnits="userSpaceOnUse" x1="505.4879" y1="164.5926" x2="506.2879" y2="12.5926">
		<stop  offset="0.111" style="stop-color:#FFFFFF"/>
		<stop  offset="1" style="stop-color:#FFE07F"/>
	</linearGradient>
	<path style="fill:url(#SVGID_00000179614822955712924860000001503266457579730834_);" d="M417.68-12.35
		c2.61,8.49-9.15,13.4-13.97,6.39c0.27,3.17-0.2,7.44,0,10.77c1.47,0.47,1.71,0.94,1.8,1c6.02,3.81,4.46,11.61-1.8,13.77
		c0,2,0,2,0,3.99c0.48-0.16,1-0.47,1.5-0.4c7.53,4.14,7.53,4.14,15.06,8.28c0,8.38,0,8.38,0,16.76c-4.83,3.06-9.75,5.99-14.67,8.88
		c-0.59,0.08-1.34-0.21-1.9-0.4c0,13.07,0,13.07,0,26.14c0.24-0.06,2.18-0.05,2.59,0c1.87,0.22,1.31,0.32,1.8,0.6
		c0.18,0.1,2.67,2.07,2.79,2.19c0.35,0.36,0.69,0.8,1,1.2c0.49,0.63,1.31,1.87,1.6,2.59c0.35,0.87,0.31,1.12,0.4,1.6
		c0.14,0.74,0.19,1.45,0.2,2.19c0.08,6.23-0.45,9.46-6.39,11.77c-0.43,0.17-1.35,0.78-2.59,1c-0.42,0.07-0.98,0.17-1.4,0.2
		c0,1.8,0,1.8,0,3.59c1.19-0.12,13.23,6.54,15.16,7.88c0,9.78,0,9.78,0,19.55c-7.58,4.74-7.58,4.74-15.16,9.48c0,3.39,0,3.39,0,6.78
		c12.83-0.46,14.21,18.09,0,17.56c0,2.59,0,2.59,0,5.19c2.87,3.07,2.51,7.39,0,10.58c0,1.7,0,1.7,0,3.39
		c3.05-5.11,12.2-3.96,13.97,1.8c9.18,0,9.18,0,18.36,0c0.06-0.37-0.15-0.72,0.3-1c5.59-2.99,5.59-2.99,11.17-5.99
		c1.51,0.47,9.15,4.34,9.48,5.29c0.03,0.56-0.05,1.14,0,1.7c3.79,0,3.79,0,7.58,0c-0.35-6.19-0.01-7.04,5.49-9.98
		c6.77-3.62,8.57-1.97,15.66,2.89c0.15,2.33,0.36,4.76,0.2,7.08c8.18,0,8.18,0,16.36,0c-0.99-0.44-8.82-4.6-8.98-5.09
		c0-6.39,0-6.39,0-12.77c5.34-3.14,5.34-3.14,10.68-6.29c5.74,3.14,5.74,3.14,11.47,6.29c0,6.39,0,6.39,0,12.77
		c-2.36,1.14-6.86,4.35-8.38,5.09c3.79,0,3.79,0,7.58,0c0.79-0.42,3.7-2.05,4.29-2c1.28,0.83,2.74,1.33,4.09,2
		c9.98,0,9.98,0,19.95,0c3.65-2.35,7.98-4.06,11.67-6.39c3.96,2.34,8.29,4.12,12.27,6.39c8.28,0,8.28,0,16.56,0
		c1.3-0.58,2.54-0.73,3.69-1.8c0.77-0.72,2.16-3.26,2.99-4.39c1.18,2.17,2.15,4.54,4.09,6.19c6.48,0,6.48,0,12.97,0
		c0.03-0.12,0.64-1.53,0.8-1.8c0-1.7,0-1.7,0-3.39c-4.77,6.06-14.88,5.93-16.36-2.49c-1.96-11.13,11.08-13.73,16.36-8.08
		c0-2.59,0-2.59,0-5.19c-11.45-0.43-11.25-17.16,0-17.56c0-3.39,0-3.39,0-6.78c-7.98-4.64-7.98-4.64-15.96-9.28
		c0-9.38,0-9.38,0-18.76c7.98-4.44,7.98-4.44,15.96-8.88c0-1.8,0-1.8,0-3.59c-1.75,0.12-3.12,0.12-2.39-0.6
		c-0.78,0.66-2.39-0.14-2.79-1c0.36,0.93-2.52-1.33-3.39-2.29c-5.05-5.58-1.21-7.42-1.4-8.38c-0.06-0.31-1.5-0.67-1.6-1
		c-0.13-0.42,0.48-1.3,0.6-1.7c0.15-0.53,0.38-1.31,0.6-1.8c0.95-2.11,2.31-4.06,4.39-5.19c1.66-0.9,2.19-0.74,2.39-0.8
		c0.98-0.26,2.19-0.88,3.19-0.4c0.14-0.1,0.01-0.1,0.4-0.2c0-13.07,0-13.07,0-26.14c-1.02-0.34-13.64-7.15-13.97-7.88
		c-0.08-5.73,0.03-11.43,0-17.16c2.72-1.4,12.42-7.57,13.97-8.08c0-2,0-2,0-3.99c-2.35,0.81-4.56,0.78-6.88-0.2
		c-8.59-3.64-5.66-17.87,6.48-14.57c0.11,0.03,0.3-0.03,0.4,0c-0.2-3.33,0.27-7.61,0-10.77c-0.15-1.76-1.56-2.94-0.8-6.39
		c-6.48,0-6.48,0-12.97,0c5.42,4.6,8.8-1.92,4.39,7.68c0.45,0.81,2.39,4.64,2.19,5.19c-0.65,0.48-0.96,0.46-1,0.5
		c-0.56,0.5-0.57,0.38-0.6,0.4c-2.27,1.65-3.88,2.05-4.09,2.19c-1.12,0.78-3.38,3.81-4.79,3.99c-2.79,0.36-3.05-3.35-5.29-4.39
		c-0.18-0.08-0.96-0.13-2.19-0.8c-1.49-0.8-2.97-1.49-4.19-2.69c1.4-2.79,1.4-2.79,2.79-5.59c-1.55-2.44-3.82-4.72-2-5.09
		c0.51-0.1,0.84,0.18,1.4,0c0.66-0.21,1.98-1.12,2.59-1.4c-8.28,0-8.28,0-16.56,0c1.2,0.68,2.35,1.49,3.59,2.1
		c0,8.78,0,8.78,0,17.56c-2.32,1.22-13.28,8.45-14.87,8.28c-7.53-3.94-7.53-3.94-15.06-7.88c0-9.18,0-9.18,0-18.36
		c0.05-0.14,2.06-1.48,2.39-1.7c-9.98,0-9.98,0-19.95,0c3.39,1.67,7.69,4.45,11.17,6.29c0,9.38,0,9.38,0,18.76
		c-7.03,4.04-7.03,4.04-14.07,8.08c-7.33-3.84-7.33-3.84-14.67-7.68c0-9.98,0-9.98,0-19.95c3.14-1.65,6.06-3.84,9.18-5.49
		c-3.79,0-3.79,0-7.58,0c-0.55,0.27-2.2,1.05-2.69,1c-0.6-0.56-1.39-0.69-2.1-1c-8.18,0-8.18,0-16.36,0
		c-0.06,0.89-0.13,2.77-0.4,3.49c-0.73,1.94-7.63,6.22-10.68,5.89c-1.47-0.16-9.2-4.39-10.08-6.29c-0.33-1.02-0.14-2.06-0.2-3.09
		c-3.79,0-3.79,0-7.58,0c0.29,3.49-0.22,8.37,0,12.07c-0.28,0.89-8.86,5.19-10.28,6.09c-5.34-2.84-5.34-2.84-10.68-5.69
		c0.24-3.14-0.33-10.51,0-12.47C426.86-12.35,426.86-12.35,417.68-12.35z M491.01,7c-8.6-1.71-8.98-14.24,0.4-14.96
		C504.26-8.95,502.53,9.29,491.01,7z M434.04-0.48c0,6.09,0,6.09,0,12.17c-9.39,7.61-10.84,7.21-20.75,1c0-6.68,0-6.68,0-13.37
		c1.78-1.23,7.96-5.08,9.48-5.29C425.54-6.34,433.8-1.29,434.04-0.48z M477.94,2.71c0,5.59,0,5.59,0,11.17
		c-5.54,3.24-5.54,3.24-11.07,6.48c-5.24-3.04-5.24-3.04-10.48-6.09c0-5.59,0-5.59,0-11.17c5.34-3.14,5.34-3.14,10.68-6.29
		C472.5-0.23,472.5-0.23,477.94,2.71z M501.98,12.99c2.89,2.34,2.86,11.57-0.6,14.17c-4.28,3.21-14.96,2.73-16.66-3.09
		c-0.63-2.14-0.53-7.13,0.4-9.18c1.01-2.22,5.4-4.06,7.68-4.29C495.32,10.34,499.99,11.38,501.98,12.99z M589.38,28.55
		c-8.11,4.35-18.25-4.26-12.47-12.27c1.15-1.6,4.15-3.43,6.09-3.69C593.58,11.18,597.48,24.2,589.38,28.55z M436.53,14.38
		c1.32-0.11,2.27,1.37,2.1,2.59c0.89-0.11,0.77-0.82,1-0.4c0.35,0,0.35,0,0.7,0c2.64,2.24,2.64,2.24,5.29,4.49
		c-0.55,0.26-1.06,0.6-1.6,0.9c-1.39,0.79-3,1.39-4.49,2c-0.25,0.25-0.25,0.25-0.5,0.5c-0.12,0.21,0.26,0.36,0.2,0.5
		c3.45-0.18,13.24-5.2,11.57,2.29c-0.86,3.86-7.37,0.04-11.97-0.9c0,0.02-0.17-0.01-0.4,0.3c2.47,1.84,5.35,3,7.98,4.59
		c-0.81,0.78-4.34,4.64-4.99,3.99c-0.96-2.3-3.19-5.66-3.99-7.68c-0.76-0.51-0.33,0.9-0.2,1.6c0.46,2.4,1.87,5.27,2.59,7.68
		c-1.39,1.88-3.38,2.84-5.59,1.7c-1.43-0.74-1.3-1.82-2.79-2.39c0.15,0.95-1.63-0.93-2.79-2c-0.28-0.25-2.23-1.58-2.19-1.9
		c2.36-1.63,4.52-3.54,6.78-5.29c-1.27-0.07-7.65,3.26-8.08,3.19c-0.67-0.1-3.35-3.53-1.3-6.29c2.23-3,5.34,1.68,9.58,1.9
		c-0.2-1.11-0.87-0.92-1.8-1.6c-0.67-0.48-1.33-0.88-2-1.4c-0.09-0.07-1.34-0.5-1.8-1.3c2.41-2.05,4.79-4.79,7.58-6.29
		C435.56,15.12,435.93,14.43,436.53,14.38z M573.51,27.25c0.56,7.45-4.54,8.68-10.28,11.27c-1.89,0.13-11.01-4.22-11.47-6.09
		c0.1-4.99,0.1-4.99,0.2-9.98c0.45-1.03,8.62-5.5,9.88-5.69C565.3,16.27,572.95,19.76,573.51,27.25z M544.78,23.06
		c0,6.09,0,6.09,0,12.17c-5.24,2.94-5.24,2.94-10.48,5.89c-5.34-2.74-5.34-2.74-10.67-5.49c0-5.89,0-5.89,0-11.77
		c5.24-3.14,5.24-3.14,10.48-6.29C539.44,20.32,539.44,20.32,544.78,23.06z M466.56,23.56c1.8,0.68,12.8,6.38,13.17,7.08
		c0.8,3.92,0.23,7.99,0.4,11.97c-5.54,4.24-5.54,4.24-11.07,8.48c-4.97-2.15-9.77-4.67-14.27-7.68c0-5.99,0-5.99,0-11.97
		c0.21-0.79,4.25-3.24,5.19-3.89C461.08,26.78,465.6,23.49,466.56,23.56z M519.84,28.25c4.04,6.92-4.66,15.21-11.67,9.68
		c-5.63-4.44-2.69-12.78,3.79-13.37C514.65,24.31,518.43,25.83,519.84,28.25z M586.88,39.43c0,6.29,0,6.29,0,12.57
		c-5.04,2.94-5.04,2.94-10.08,5.89c-1.42,0.17-9.09-4.3-11.07-5.09c0-6.39,0-6.39,0-12.77c5.34-2.94,5.34-2.94,10.68-5.89
		C581.64,36.78,581.64,36.78,586.88,39.43z M496.59,35.53c0.96,0.54,3.22,3.46,3.49,4.49c1.45,5.41-5.3,12.55-12.27,8.28
		c-5.44-3.33-4.56-12.68,2.19-13.77C491.68,34.27,495.08,34.68,496.59,35.53z M559.95,44.61c-0.11,4.41,0.36,8.77,0,13.17
		c-12.72,7.98-11.18,9.6-24.34,0.8c0.01-4.5-0.12-8.99,0.3-13.47c1.72-1.06,10.96-6.68,11.77-6.78
		C549.37,38.1,559.7,43.76,559.95,44.61z M450.8,46.81c1.88,11.29,0.54,11.42-9.08,15.86c-7.95-2.97-12.3-3.89-10.68-13.67
		c0.8-4.84,7.06-7.53,8.68-7.68C442.71,41.03,448.72,44.53,450.8,46.81z M523.63,48.01c-0.87,15.65,3.77,10.62-11.27,18.86
		c-5.54-2.94-5.54-2.94-11.07-5.89c0-6.09,0-6.09,0-12.17c0.32-1.26,9.78-6.53,11.27-6.68C514.98,41.88,523.25,46.86,523.63,48.01z
		 M495.7,59.38c-0.1,6.48-0.1,6.48-0.2,12.97c-0.55,1.26-9.34,5.94-11.27,6.68c-1.33,0.09-11.53-5.11-11.87-6.29
		c0.63-11.85-2.83-13.12,6.29-17.86c0.63-0.33,3.96-1.96,4.19-2C485.69,52.49,493.2,57.4,495.7,59.38z M602.25,60.98
		c0.41,4.1,0.18,8.25,0,12.37c-3.18,2.14-6.52,4.04-10.08,5.49c-1.35,0.08-9.39-4-10.28-5.09c-1.5-1.85-0.69-10.22-0.4-12.97
		c0.4-0.9,8.69-5.39,9.48-5.49C593.34,54.99,601.97,60.34,602.25,60.98z M424.66,67.36c-0.58,12.03-20.75,12.23-19.16-2.19
		c0.51-4.6,4.97-8.33,9.48-8.48C421.07,56.49,424.94,61.58,424.66,67.36z M459.28,63.47c-1.99-0.48-1.91-3.92,0-4.39
		C463.3,58.09,463.35,64.45,459.28,63.47z M574.11,65.17c0,6.48,0,6.48,0,12.97c-5.24,3.04-5.24,3.04-10.48,6.09
		c-1.25,0.15-9.97-4.59-11.67-5.69c0-6.39,0-6.39,0-12.77c5.44-3.14,5.44-3.14,10.87-6.29C564.12,59.32,572.31,64.1,574.11,65.17z
		 M452.9,64.67c-2.15-0.52-1.84-4.14,0.4-4.39C456.73,59.89,456.78,65.6,452.9,64.67z M465.07,68.06c-3.4,0.62-3.74-4.01-1.4-4.59
		C467.19,62.6,467.69,67.58,465.07,68.06z M546.58,70.95c0,6.39,0,6.39,0,12.77c-1.48,1.11-11.27,6.72-12.07,6.68
		c-5.64-2.94-5.64-2.94-11.27-5.89c0-6.29,0-6.29,0-12.57c6.04-3.44,6.04-3.44,12.07-6.88C540.94,68.01,540.94,68.01,546.58,70.95z
		 M460.68,69.85c-3.48,1.54-4.3-3.6-1.8-4.19C461.74,64.99,462.92,68.86,460.68,69.85z M450.5,71.05c-3.83,0.84-3.93-4.38-1.2-4.79
		C452.42,65.8,453.09,70.49,450.5,71.05z M442.22,84.52c-5.55,8.33-20.12,3.14-17.76-6.98c0.73-3.14,4.94-6.51,8.08-6.88
		C440.66,69.69,446.64,77.89,442.22,84.52z M466.07,76.24c-3.26,0.53-3.78-4.39-1.2-4.99C468.49,70.41,468.96,75.77,466.07,76.24z
		 M515.05,76.94c0,6.09,0,6.09,0,12.17c-9.05,6.96-11.28,6.6-20.35-0.4c0-5.79,0-5.79,0-11.57c2.96-2.33,6.39-3.9,9.68-5.69
		C505.89,71.25,513.42,75.58,515.05,76.94z M458.28,77.04c-3.02,0.25-3.37-4.33-0.8-4.79C461.02,71.62,461.29,76.79,458.28,77.04z
		 M450.7,78.43c-3.46,0.81-4.06-4.1-1.4-4.59C452.61,73.24,453.07,77.88,450.7,78.43z M462.87,81.83c-3.43,0.68-3.62-3.99-1-4.39
		C464.96,76.97,465.33,81.34,462.87,81.83z M455.29,82.03c-2.99,0.45-3.24-3.87-1-4.39C457.63,76.86,457.91,81.63,455.29,82.03z
		 M587.28,96.49c-3.49,3.98-9.32,4.17-13.27,0.7c-5.99-5.26-1.4-14.56,5.99-14.96C587.53,81.81,592.44,90.61,587.28,96.49z
		 M491.11,89.91c0,6.19,0,6.19,0,12.37c-5.14,2.94-5.14,2.94-10.28,5.89c-0.69,0.08-11.87-5.83-12.07-6.48c0-6.09,0-6.09,0-12.17
		c5.04-2.94,5.04-2.94,10.08-5.89C479.81,83.51,490.89,89.25,491.11,89.91z M462.97,90.91c-0.1,7.08-0.1,7.08-0.2,14.17
		c-0.46,1-9.12,5.77-10.87,6.29c-1.44,0.08-11.14-4.85-11.47-6.09c0-7.18,0-7.18,0-14.37c3.3-2.81,7.24-4.72,11.07-6.68
		C453.41,84.79,462.58,89.54,462.97,90.91z M549.27,93.6c0.97-0.23,1.91,0.26,2,0.2c0.28-0.2-0.03-1.68,0.1-1.9
		c0.14-0.22,0.65-0.03,0.7-0.1c0.81-1.21,3.39-4.72,4.69-1.8c0.17,0.38,0.18,0.35,0.2,0.8c1.13-0.47,4.23-0.52,3.39,1.4
		c1.3-0.04,2.02,0.21,2.59,1.4c0.33,0.68,0.55,0.86,0.4,2c3.24,1.86,2.92,2.52,0.8,5.19c1.46,1.02,2.17,2.78,1.8,4.49
		c-0.3,1.38-1.9,1.79-2,1.9c-0.68,0.79-1,1.7-1.9,2.39c-1.59,1.24-2.56,1.13-2.69,1.2c-0.22,0.1-2.21,2.35-4.19,1
		c-2.2,0.71-3.1-1.87-4.39-2.99c-3.37,1.91-6.96-1.4-4.79-4.59c-2.88-1-1.29-4.12,1.2-4.79c-0.03-0.11-0.18-0.38-0.2-0.4
		C545.07,97.04,546.98,94.14,549.27,93.6z M539.19,98.29c-0.24,3,0.32,10.4,0,12.17c-0.49,2.72-9.52,6.7-12.07,8.28
		c-1.02,0.08-12.13-5.51-12.47-6.68c0-7.08,0-7.08,0-14.17c0.2-0.61,10.16-6.35,11.07-6.48C528.43,90.99,538.89,97.05,539.19,98.29z
		 M427.95,106.97c-10.18,1.22-12.46-13.33-2.79-14.57C435.66,91.06,437.51,105.82,427.95,106.97z M509.86,113.25
		c-6.45,8.09-18.79,2.57-17.56-6.98c0.48-3.72,7.36-7.06,8.88-7.28C506.66,98.18,515.95,105.62,509.86,113.25z M586.38,117.74
		c-3.35,2.14-6.01,1.6-9.38-0.2c-7.92-4.23-3.8-14.29,3.59-15.16C590.24,101.24,594.64,112.47,586.38,117.74z M447.01,115.65
		c0,6.48,0,6.48,0,12.97c-0.26,0.86-11.48,7.4-12.87,7.28c-5.44-2.94-5.44-2.94-10.87-5.89c0-7.08,0-7.08,0-14.17
		c5.84-3.64,5.84-3.64,11.67-7.28C436.41,108.38,446.72,114.64,447.01,115.65z M471.85,112.95c1.66,1.57,1.81,7.22,1.5,9.48
		c-0.53,3.81-7.55,6.26-8.48,6.29c-1.54,0.04-7.12-2.84-8.08-4.09c-1.37-1.78-1.38-8.88-0.4-10.77c0.66-1.28,5.86-3.96,7.28-4.09
		C465.74,109.57,470.39,111.56,471.85,112.95z M493.8,120.14c0.79-0.1,2.12,0.67,2.89,1c0.93,0.39,7.41,3.98,7.58,4.49
		c0.1,6.19,0.1,6.19,0.2,12.37c-0.18,0.71-2.58,2.21-3.29,2.69c-8.28,5.68-10.42,5.08-18.46-1.1c0-6.48,0-6.48,0-12.97
		c0.21-0.68,3.82-2.23,4.59-2.69C489.46,122.62,491.54,121.25,493.8,120.14z M570.32,121.43c3.28,6.05,4.56,5.12,10.97,6.19
		c-1.6,2.79-1.6,2.79-3.19,5.59c1.7,2.79,1.7,2.79,3.39,5.59c-3.74,0.65-3.74,0.65-7.48,1.3c-5.62,8.92-6.47,0.98-8.98-0.4
		c-0.92-0.51-2.51-0.39-3.49-0.6c-0.37-0.08-2.54-0.54-2.59-0.7c0.34-0.54,1.8-3.77,1.8-3.99c-0.01-0.43-5.12-8.42-2.29-6.09
		c0.33-0.92,2.96-0.29,1.1-1.1c1.47-0.48,3.14-1.87,5.29-0.9c0.49-0.13,2.68-4.63,3.59-5.19c0.42-0.11,0.71,0.18,1.1,0.2
		C569.59,121.34,569.18,120.58,570.32,121.43z M517.94,136.1c-11.04,1.52-12.21-13.96-2-14.77
		C526.49,120.5,527.23,134.82,517.94,136.1z M552.16,131.21c0,6.48,0,6.48,0,12.97c-5.24,3.14-5.24,3.14-10.48,6.29
		c-1.33,0.24-10.47-4.83-12.27-6.09c0-6.58,0-6.58,0-13.17c5.44-3.14,5.44-3.14,10.87-6.29
		C541.19,124.84,551.93,130.45,552.16,131.21z M465.27,150.27c-10.05-1.06-8.88-14.98-0.4-16.16
		C477.94,132.28,479.04,151.72,465.27,150.27z M455.79,141.99c0,5.49,0,5.49,0,10.97c-5.64,3.34-5.64,3.34-11.27,6.68
		c-0.92,0.07-10.05-5.16-11.47-6.29c0-5.89,0-5.89,0-11.77c5.34-3.24,5.34-3.24,10.68-6.48
		C445.31,136.11,455.49,141.01,455.79,141.99z M592.77,153.66c-11.09,6.76-17.8-13.13-4.79-14.17
		C597.53,138.73,599.65,149.47,592.77,153.66z M523.73,145.08c2.72,2.42,1.62,8.44,1.3,11.87c-9.71,6.34-10.64,7.73-20.75,0.2
		c-0.63-3.46-0.38-6.9,0-10.38c1.55-1.94,8.12-5.64,10.28-5.69C516.24,141.05,522.42,143.92,523.73,145.08z M427.65,156.35
		c-4.92,5.63-17.01,2.11-13.37-6.88c0.79-1.94,1.45-2.71,3.39-3.59C425.73,142.23,432.02,151.36,427.65,156.35z M482.23,147.07
		c6.14,3.64,6.14,3.64,12.27,7.28c0.1,6.29,0.1,6.29,0.2,12.57c-1.96,1.01-9.08,7.24-10.68,7.08c-6.73-3.64-6.73-3.64-13.47-7.28
		c0-5.89,0-5.89,0-11.77c0.12-0.22,0.58-0.47,0.6-0.5c0.35-0.47,8.78-6.41,9.58-6.78C481.31,147.4,481.62,146.96,482.23,147.07z
		 M571.32,161.54c0,6.78,0,6.78,0,13.57c-5.24,3.04-5.24,3.04-10.48,6.09c-6.24-3.04-6.24-3.04-12.47-6.09c0-6.78,0-6.78,0-13.57
		c1.68-0.81,10.23-5.81,10.87-5.89C561.02,155.43,569.25,160.24,571.32,161.54z M591.17,175.61c-9.99,5.69-20.04-6.38-13.47-13.87
		c1.22-1.39,5.08-3.46,6.88-3.69C594.36,156.8,601.27,169.86,591.17,175.61z M468.16,167.13c0.17,12.05,2.09,11.61-5.49,15.86
		c-7.53,4.23-7.7,3.45-17.46-2.89c0-6.29,0-6.29,0-12.57c0.3-1,9.61-6.06,11.27-6.68C458.19,160.68,467.52,165.77,468.16,167.13z
		 M439.43,168.32c0,7.18,0,7.18,0,14.37c-5.24,3.04-5.24,3.04-10.48,6.09c-1.57-0.74-11.81-5.69-12.07-6.48
		c0.1-6.88,0.1-6.88,0.2-13.77c5.24-3.04,5.24-3.04,10.48-6.09C429.21,162.21,437.31,167.21,439.43,168.32z M521.93,172.61
		c1.06-0.43,2.68,1.81,8.98-5.59c0.96,0.82,2.48,3.4,2.89,3.79c2.12,2.04,5,2.46,7.78,2.89c-2.05,5.7-2.83,4.86-0.4,10.97
		c-0.15,0.32-5.26,1.12-6.09,1.7c-0.51,0.35-2.64,4.41-3.89,4.99c-0.03,0.01,0.08,0.29-0.6,0.2c-5.81-7.05-5.15-4.72-7.68-5.59
		c-3.04-1.04-0.6-4.47-0.7-5.89c-0.06-0.86-3.35-6.99-1.3-6.68c0.1,0.01,0.15,0.45,0.3,0.6c0.25-0.61,0.44-0.63,0.6-0.8
		C521.89,173.15,521.73,172.7,521.93,172.61z"/>
	<path class="st6" d="M623.2,137.2c0-9.78,0-9.78,0-19.55c-1.94-1.34-13.98-8-15.16-7.88c-7.98,4.44-7.98,4.44-15.96,8.88
		c0,9.38,0,9.38,0,18.76c7.98,4.64,7.98,4.64,15.96,9.28C615.62,141.94,615.62,141.94,623.2,137.2z M611.33,123.93
		c2.65,1.79,2.53,5.01,1.9,7.88c-5.87,7.22-12.4,0.44-11.17-4.59c0.27-1.09,3.27-4.05,4.49-4.29
		C608.04,122.63,610.05,123.07,611.33,123.93z"/>
	<path class="st3" d="M591.67,184.29c1.48,8.42,11.59,8.55,16.36,2.49c2.51-3.19,2.87-7.5,0-10.58
		C602.76,170.55,589.71,173.16,591.67,184.29z M601.75,186.18c-6.53,1.74-7.78-7.42-2.59-8.38
		C605.29,176.66,606.65,184.88,601.75,186.18z"/>
	<path class="st8" d="M611.33,93.6c0.38,5.87-7.59,5.39-6.58-0.2c-2.59-0.06-5.43-0.88-7.68-2.19c-0.12,0.4-0.73,1.27-0.6,1.7
		c0.1,0.33,1.53,0.69,1.6,1c0.19,0.96-3.65,2.8,1.4,8.38c0.88,0.97,3.75,3.22,3.39,2.29c3.04-8.91,2.05-4.14,6.68-5.59
		c1.25,2.99,1.25,2.99,2.49,5.99c5.94-2.31,6.47-5.54,6.39-11.77C616.33,93.74,612.76,95.03,611.33,93.6z M601.05,94.7
		c0,0.13-2.38,0.97-2.49,0.9c-0.07-0.04,0.34-1.36,0.4-1.4C599.19,94.07,601.05,94.59,601.05,94.7z M604.04,96.69
		c-0.02,0.35-5.24,3.58-5.99,2.99c-0.39-0.31-1.06-1.7-0.3-1.9c0.99,0.14,5.09-2.84,5.39-2.79
		C603.26,95.01,604.05,96.6,604.04,96.69z M617.11,97.59c-1.62-1.99,0.04-2.44,0.2-2.39C617.43,95.23,617.11,97.32,617.11,97.59z
		 M614.92,102.18c-1.95-1.95-1.95-1.95-3.89-3.89c0.87-0.85,1.55-2.64,1.7-2.69C614.3,94.99,617.87,98.25,614.92,102.18z
		 M603.64,99.29c-0.47,0.32-1.9,3.26-2.1,3.29c-0.09,0.01-1.3-1.21-1.3-1.3c0-0.36,2.72-1.83,3.09-2.29
		C603.49,99.14,603.49,99.14,603.64,99.29z M613.72,103.58c-0.03,0.06-1.13,0.61-1.2,0.6c-0.2-0.04-1.78-3.6-1.4-3.79
		C611.29,101.02,613.98,103.11,613.72,103.58z"/>
	<path class="st3" d="M607.63,4.81c0.15,0.3,0.15,0.3,0.3,0.6c-2.25-0.27-3.8-0.32-5.99,0.4c-6.38,2.88-4.53,11.74,2.19,12.57
		c2.29,0.28,4.82-0.68,6.29-2.49c3.86-4.79-1.57-7.61-0.6-10.08c-0.09-0.05-0.33-0.52-1.8-1C607.93,4.77,607.74,4.84,607.63,4.81z
		 M606.74,15.58c-5.54,2.48-8.02-6.23-2.59-6.98C608.74,7.96,610.63,13.84,606.74,15.58z"/>
	<path class="st3" d="M607.63,4.81c0.15,0.3,0.15,0.3,0.3,0.6c-2.25-0.27-3.8-0.32-5.99,0.4c-6.38,2.88-4.53,11.74,2.19,12.57
		c2.29,0.28,4.82-0.68,6.29-2.49c3.86-4.79-1.57-7.61-0.6-10.08c6.02,3.81,4.46,11.61-1.8,13.77c-2.35,0.81-4.56,0.78-6.88-0.2
		C592.56,15.73,595.49,1.5,607.63,4.81z"/>
	<path class="st9" d="M612.02,104.97c-0.43,0.17-1.35,0.78-2.59,1c-0.85-3.19-0.85-3.19-1.7-6.39c-0.71-0.21-1.07,5.11-2.1,5.99
		c-0.78,0.66-2.39-0.14-2.79-1c3.04-8.91,2.05-4.14,6.68-5.59C610.78,101.98,610.78,101.98,612.02,104.97z"/>
	<path class="st8" d="M609.43,105.97c-0.42,0.07-0.98,0.17-1.4,0.2c-1.75,0.12-3.12,0.12-2.39-0.6c1.03-0.88,1.38-6.2,2.1-5.99
		C608.58,102.78,608.58,102.78,609.43,105.97z"/>
	<path class="st10" d="M602.05,127.22c-1.22,5.03,5.3,11.8,11.17,4.59c0.63-2.87,0.76-6.09-1.9-7.88c-1.28-0.86-3.28-1.3-4.79-1
		C605.32,123.17,602.31,126.13,602.05,127.22z M607.14,130.91c-1.15-0.36-1.14-2.86,0-3.19
		C609.82,126.93,609.84,131.75,607.14,130.91z"/>
	<path class="st3" d="M606.74,15.58c3.89-1.75,2.01-7.62-2.59-6.98C598.72,9.35,601.2,18.07,606.74,15.58z M605.34,14.18
		c-2.68,0.38-2.99-3.34-1-3.79C607.26,9.74,607.58,13.87,605.34,14.18z"/>
	<path class="st11" d="M608.53,96.39c2.49-0.56,1.64-5.32-1.2-4.99C604.75,91.7,605.04,97.18,608.53,96.39z M608.33,95.59
		c-2.42,0.58-2.64-2.78-1.2-3.19C609.47,91.73,610.22,95.14,608.33,95.59z"/>
	<path class="st12" d="M607.14,127.72c2.68-0.79,2.71,4.03,0,3.19C605.98,130.56,606,128.05,607.14,127.72z"/>
	<path class="st9" d="M607.14,92.4c2.33-0.67,3.09,2.74,1.2,3.19C605.91,96.17,605.7,92.82,607.14,92.4z"/>
</g>
</svg>
